<svg 
 xmlns="http://www.w3.org/2000/svg"
 xmlns:xlink="http://www.w3.org/1999/xlink"
 width="16px" height="30px">
<path fill-rule="evenodd"  fill="rgb(5, 146, 228)"
 d="M1.991,29.899 C1.487,29.899 0.983,29.706 0.598,29.321 C-0.172,28.551 -0.172,27.301 0.598,26.531 L11.764,15.352 C11.890,15.225 11.917,15.080 11.917,14.982 C11.917,14.883 11.890,14.738 11.764,14.612 L0.598,3.433 C-0.172,2.662 -0.172,1.413 0.598,0.643 C1.368,-0.128 2.615,-0.128 3.385,0.643 L14.550,11.822 C15.393,12.665 15.858,13.788 15.858,14.982 C15.858,16.176 15.393,17.298 14.550,18.142 L3.385,29.321 C3.000,29.706 2.496,29.899 1.991,29.899 Z"/>
</svg>