<svg 
 xmlns="http://www.w3.org/2000/svg"
 xmlns:xlink="http://www.w3.org/1999/xlink"
 width="83px" height="83px">
<defs>
<filter filterUnits="userSpaceOnUse" id="Filter_0" x="0px" y="0px" width="83px" height="83px"  >
    <feOffset in="SourceAlpha" dx="1" dy="1.732" />
    <feGaussianBlur result="blurOut" stdDeviation="1.732" />
    <feFlood flood-color="rgb(40, 40, 40)" result="floodOut" />
    <feComposite operator="atop" in="floodOut" in2="blurOut" />
    <feComponentTransfer><feFuncA type="linear" slope="0.2"/></feComponentTransfer>
    <feMerge>
    <feMergeNode/>
    <feMergeNode in="SourceGraphic"/>
  </feMerge>
</filter>
<linearGradient id="PSgrad_0" x1="70.711%" x2="0%" y1="70.711%" y2="0%">
  <stop offset="0%" stop-color="rgb(63,184,255)" stop-opacity="1" />
  <stop offset="100%" stop-color="rgb(154,220,255)" stop-opacity="1" />
</linearGradient>

</defs>
<g filter="url(#Filter_0)">
<path fill-rule="evenodd"  fill="rgb(255, 255, 255)"
 d="M40.000,-0.000 C61.539,-0.000 79.000,17.461 79.000,39.000 C79.000,60.539 61.539,78.000 40.000,78.000 C18.461,78.000 1.000,60.539 1.000,39.000 C1.000,17.461 18.461,-0.000 40.000,-0.000 Z"/>
</g>
<path fill-rule="evenodd"  fill="rgb(5, 145, 227)"
 d="M40.000,4.000 C59.330,4.000 75.000,19.670 75.000,39.000 C75.000,58.330 59.330,74.000 40.000,74.000 C20.670,74.000 5.000,58.330 5.000,39.000 C5.000,19.670 20.670,4.000 40.000,4.000 Z"/>
<path fill="url(#PSgrad_0)"
 d="M40.000,4.000 C59.330,4.000 75.000,19.670 75.000,39.000 C75.000,58.330 59.330,74.000 40.000,74.000 C20.670,74.000 5.000,58.330 5.000,39.000 C5.000,19.670 20.670,4.000 40.000,4.000 Z"/>
<path fill-rule="evenodd"  fill="rgb(255, 255, 255)"
 d="M53.875,40.250 L52.906,40.250 C52.466,43.820 49.447,46.797 45.864,47.171 C45.524,48.228 44.543,49.000 43.375,49.000 L39.875,49.000 C38.428,49.000 37.250,47.822 37.250,46.375 C37.250,44.928 38.428,43.750 39.875,43.750 L43.375,43.750 C44.486,43.750 45.433,44.447 45.815,45.425 C48.508,45.054 51.250,42.603 51.250,39.375 L51.250,28.875 L51.250,25.375 C51.250,19.954 45.135,15.750 39.875,15.750 C34.615,15.750 28.500,19.954 28.500,25.375 L28.500,28.875 L28.500,39.375 C28.500,39.859 28.109,40.250 27.625,40.250 L25.875,40.250 C22.498,40.250 19.750,37.502 19.750,34.125 C19.750,30.748 22.498,28.000 25.875,28.000 L26.750,28.000 L26.750,25.375 C26.750,18.968 33.805,14.000 39.875,14.000 C45.945,14.000 53.000,18.968 53.000,25.375 L53.000,28.000 L53.875,28.000 C57.252,28.000 60.000,30.748 60.000,34.125 C60.000,37.502 57.252,40.250 53.875,40.250 ZM43.375,45.500 L39.875,45.500 C39.392,45.500 39.000,45.893 39.000,46.375 C39.000,46.857 39.392,47.250 39.875,47.250 L43.375,47.250 C43.858,47.250 44.250,46.857 44.250,46.375 C44.250,45.893 43.858,45.500 43.375,45.500 ZM26.750,29.750 L25.875,29.750 C23.463,29.750 21.500,31.712 21.500,34.125 C21.500,36.538 23.463,38.500 25.875,38.500 L26.750,38.500 L26.750,29.750 ZM53.875,29.750 L53.000,29.750 L53.000,38.500 L53.875,38.500 C56.287,38.500 58.250,36.538 58.250,34.125 C58.250,31.712 56.287,29.750 53.875,29.750 ZM31.305,42.916 C31.778,42.815 32.247,43.090 32.361,43.562 C32.474,44.032 32.186,44.504 31.715,44.618 C24.558,46.344 19.750,50.567 19.750,55.125 C19.750,55.609 19.359,56.000 18.875,56.000 C18.391,56.000 18.000,55.609 18.000,55.125 C18.000,49.658 23.223,44.866 31.305,42.916 ZM54.894,46.507 C55.564,46.990 56.184,47.515 56.734,48.069 C58.869,50.160 60.000,52.603 60.000,55.125 C60.000,55.609 59.609,56.000 59.125,56.000 C58.641,56.000 58.250,55.609 58.250,55.125 C58.250,53.085 57.300,51.073 55.502,49.311 C55.011,48.817 54.464,48.354 53.871,47.925 C53.478,47.643 53.390,47.096 53.673,46.703 C53.956,46.312 54.501,46.219 54.894,46.507 Z"/>
</svg>