<svg 
 xmlns="http://www.w3.org/2000/svg"
 xmlns:xlink="http://www.w3.org/1999/xlink"
 width="23px" height="22px">
<path fill-rule="evenodd"  fill="rgb(52, 180, 255)"
 d="M11.048,-0.000 C17.150,-0.000 22.096,4.925 22.096,11.000 C22.096,17.075 17.150,22.000 11.048,22.000 C4.946,22.000 0.000,17.075 0.000,11.000 C0.000,4.925 4.946,-0.000 11.048,-0.000 Z"/>
<path fill-rule="evenodd"  fill="rgb(255, 255, 255)"
 d="M19.964,6.200 L18.816,7.190 C18.755,7.242 18.678,7.270 18.596,7.270 L16.780,7.270 C16.675,7.270 16.618,7.136 16.694,7.070 L17.843,6.080 C17.903,6.028 17.980,6.000 18.062,6.000 L19.878,6.000 C19.983,6.000 20.041,6.134 19.964,6.200 ZM17.650,7.871 L15.807,9.460 C15.710,9.543 15.586,9.588 15.454,9.588 L12.541,9.588 C12.373,9.588 12.280,9.373 12.403,9.268 L14.246,7.678 C14.342,7.595 14.466,7.550 14.598,7.550 L17.512,7.550 C17.680,7.550 17.772,7.765 17.650,7.871 ZM9.969,10.248 L11.156,10.248 C11.350,10.248 11.534,10.338 11.655,10.493 L16.447,16.640 C16.561,16.786 16.458,17.000 16.275,17.000 L12.844,17.000 C12.650,17.000 12.466,16.910 12.345,16.755 L8.630,11.990 L6.273,15.057 C6.152,15.214 5.967,15.305 5.771,15.305 L2.220,15.305 C2.037,15.305 1.934,15.092 2.046,14.946 L8.290,6.823 C8.411,6.666 8.596,6.574 8.792,6.574 L12.343,6.574 C12.526,6.574 12.629,6.787 12.516,6.933 L9.969,10.248 Z"/>
</svg>