<svg 
 xmlns="http://www.w3.org/2000/svg"
 xmlns:xlink="http://www.w3.org/1999/xlink"
 width="298px" height="30px">
<path fill-rule="evenodd"  fill="rgb(175, 175, 175)"
 d="M297.361,0.980 L148.999,28.955 L0.638,0.980 C0.366,0.928 0.104,1.104 0.052,1.372 C0.000,1.640 0.178,1.899 0.450,1.950 L148.905,29.943 C148.937,29.949 148.967,29.952 148.998,29.952 C148.998,29.952 148.998,29.952 148.999,29.952 C148.999,29.952 148.999,29.952 148.999,29.952 C148.999,29.952 149.000,29.952 149.000,29.952 C149.000,29.952 149.000,29.952 149.001,29.952 C149.031,29.952 149.062,29.949 149.093,29.943 L297.549,1.950 C297.821,1.899 297.999,1.640 297.947,1.372 C297.895,1.104 297.628,0.931 297.361,0.980 Z"/>
</svg>