<svg 
 xmlns="http://www.w3.org/2000/svg"
 xmlns:xlink="http://www.w3.org/1999/xlink"
 width="59px" height="49px">
<defs>
<linearGradient id="PSgrad_0" x1="100%" x2="0%" y1="0%" y2="0%">
  <stop offset="0%" stop-color="rgb(48,178,255)" stop-opacity="1" />
  <stop offset="100%" stop-color="rgb(156,221,255)" stop-opacity="1" />
</linearGradient>

</defs>
<path fill-rule="evenodd"  fill="rgb(97, 197, 255)"
 d="M57.468,0.784 C56.498,0.063 55.291,-0.131 54.146,0.263 L50.041,1.664 L8.466,11.687 L3.687,11.687 C1.654,11.687 -0.000,13.381 -0.000,15.464 L-0.000,30.575 C-0.000,32.658 1.654,34.353 3.687,34.353 L8.466,34.353 L14.797,35.879 C14.806,35.923 14.798,35.966 14.812,36.010 L16.860,42.306 C17.249,43.492 18.178,44.404 19.345,44.741 L33.348,48.841 C33.677,48.939 34.011,48.986 34.342,48.986 C35.720,48.986 37.036,48.165 37.742,46.672 L39.085,41.733 L50.041,44.375 L54.146,45.776 C54.535,45.909 54.931,45.973 55.322,45.973 C56.083,45.973 56.827,45.730 57.468,45.255 C58.441,44.537 59.000,43.420 59.000,42.191 L59.000,3.848 C59.000,2.619 58.441,1.502 57.468,0.784 ZM2.458,30.575 L2.458,15.464 C2.458,14.771 3.010,14.205 3.687,14.205 L7.375,14.205 L7.375,31.834 L3.687,31.834 C3.010,31.834 2.458,31.268 2.458,30.575 ZM9.833,13.944 L49.167,4.461 L49.167,41.578 L9.833,32.095 L9.833,13.944 ZM35.459,45.772 C35.194,46.313 34.580,46.581 34.023,46.421 L20.017,42.319 C19.631,42.208 19.321,41.903 19.194,41.509 L17.581,36.550 L36.694,41.157 L35.459,45.772 ZM56.542,42.191 C56.542,42.601 56.354,42.973 56.030,43.214 C55.709,43.450 55.305,43.516 54.924,43.386 L51.625,42.259 L51.625,3.780 L54.924,2.653 C55.305,2.518 55.709,2.587 56.030,2.825 C56.354,3.066 56.542,3.438 56.542,3.848 L56.542,42.191 Z"/>
<path fill="url(#PSgrad_0)"
 d="M57.468,0.784 C56.498,0.063 55.291,-0.131 54.146,0.263 L50.041,1.664 L8.466,11.687 L3.687,11.687 C1.654,11.687 -0.000,13.381 -0.000,15.464 L-0.000,30.575 C-0.000,32.658 1.654,34.353 3.687,34.353 L8.466,34.353 L14.797,35.879 C14.806,35.923 14.798,35.966 14.812,36.010 L16.860,42.306 C17.249,43.492 18.178,44.404 19.345,44.741 L33.348,48.841 C33.677,48.939 34.011,48.986 34.342,48.986 C35.720,48.986 37.036,48.165 37.742,46.672 L39.085,41.733 L50.041,44.375 L54.146,45.776 C54.535,45.909 54.931,45.973 55.322,45.973 C56.083,45.973 56.827,45.730 57.468,45.255 C58.441,44.537 59.000,43.420 59.000,42.191 L59.000,3.848 C59.000,2.619 58.441,1.502 57.468,0.784 ZM2.458,30.575 L2.458,15.464 C2.458,14.771 3.010,14.205 3.687,14.205 L7.375,14.205 L7.375,31.834 L3.687,31.834 C3.010,31.834 2.458,31.268 2.458,30.575 ZM9.833,13.944 L49.167,4.461 L49.167,41.578 L9.833,32.095 L9.833,13.944 ZM35.459,45.772 C35.194,46.313 34.580,46.581 34.023,46.421 L20.017,42.319 C19.631,42.208 19.321,41.903 19.194,41.509 L17.581,36.550 L36.694,41.157 L35.459,45.772 ZM56.542,42.191 C56.542,42.601 56.354,42.973 56.030,43.214 C55.709,43.450 55.305,43.516 54.924,43.386 L51.625,42.259 L51.625,3.780 L54.924,2.653 C55.305,2.518 55.709,2.587 56.030,2.825 C56.354,3.066 56.542,3.438 56.542,3.848 L56.542,42.191 Z"/>
</svg>