<svg 
 xmlns="http://www.w3.org/2000/svg"
 xmlns:xlink="http://www.w3.org/1999/xlink"
 width="56px" height="56px">
<defs>
<linearGradient id="PSgrad_0" x1="100%" x2="0%" y1="0%" y2="0%">
  <stop offset="0%" stop-color="rgb(48,178,255)" stop-opacity="1" />
  <stop offset="100%" stop-color="rgb(156,221,255)" stop-opacity="1" />
</linearGradient>

</defs>
<path fill-rule="evenodd" id="icon6-1" fill="url(#PSgrad_0)"
 d="M27.993,55.994 C12.553,55.994 -0.009,43.437 -0.009,28.002 C-0.009,12.567 12.553,0.009 27.993,0.009 C43.433,0.009 55.995,12.567 55.995,28.002 C55.995,43.437 43.433,55.994 27.993,55.994 ZM27.993,2.162 C13.740,2.162 2.145,13.753 2.145,28.002 C2.145,42.250 13.740,53.842 27.993,53.842 C42.246,53.842 53.842,42.250 53.842,28.002 C53.842,13.753 42.246,2.162 27.993,2.162 ZM50.735,30.602 C49.574,41.106 41.104,49.575 30.595,50.737 C29.739,50.832 28.886,50.878 28.038,50.878 C21.876,50.878 16.006,48.412 11.631,43.912 C11.370,43.644 11.232,43.281 11.250,42.908 C11.269,42.536 11.441,42.188 11.725,41.946 L28.147,28.050 L28.147,6.550 C28.147,6.177 28.302,5.821 28.574,5.566 C28.848,5.312 29.204,5.194 29.587,5.207 C35.769,5.634 41.598,8.612 45.579,13.378 C49.601,18.192 51.432,24.308 50.735,30.602 Z"/>
<path fill="url(#PSgrad_0)"
 d="M27.993,55.994 C12.553,55.994 -0.009,43.437 -0.009,28.002 C-0.009,12.567 12.553,0.009 27.993,0.009 C43.433,0.009 55.995,12.567 55.995,28.002 C55.995,43.437 43.433,55.994 27.993,55.994 ZM27.993,2.162 C13.740,2.162 2.145,13.753 2.145,28.002 C2.145,42.250 13.740,53.842 27.993,53.842 C42.246,53.842 53.842,42.250 53.842,28.002 C53.842,13.753 42.246,2.162 27.993,2.162 ZM50.735,30.602 C49.574,41.106 41.104,49.575 30.595,50.737 C29.739,50.832 28.886,50.878 28.038,50.878 C21.876,50.878 16.006,48.412 11.631,43.912 C11.370,43.644 11.232,43.281 11.250,42.908 C11.269,42.536 11.441,42.188 11.725,41.946 L28.147,28.050 L28.147,6.550 C28.147,6.177 28.302,5.821 28.574,5.566 C28.848,5.312 29.204,5.194 29.587,5.207 C35.769,5.634 41.598,8.612 45.579,13.378 C49.601,18.192 51.432,24.308 50.735,30.602 Z"/>
</svg>