<svg 
 xmlns="http://www.w3.org/2000/svg"
 xmlns:xlink="http://www.w3.org/1999/xlink"
 width="22px" height="21px">
<path fill-rule="evenodd"  fill="rgb(69, 69, 69)"
 d="M21.388,20.979 C21.327,20.994 21.266,21.000 21.206,21.000 C20.844,21.000 20.516,20.751 20.430,20.383 C19.404,15.972 15.526,12.892 11.000,12.892 C6.474,12.892 2.596,15.972 1.570,20.383 C1.470,20.812 1.041,21.080 0.612,20.979 C0.183,20.879 -0.084,20.450 0.016,20.020 C0.934,16.071 3.816,13.040 7.493,11.848 C5.731,10.696 4.563,8.706 4.563,6.446 C4.563,2.892 7.451,0.000 11.000,0.000 C14.549,0.000 17.437,2.892 17.437,6.446 C17.437,8.706 16.269,10.696 14.506,11.848 C18.184,13.040 21.066,16.071 21.984,20.020 C22.084,20.450 21.817,20.879 21.388,20.979 ZM15.841,6.446 C15.841,3.773 13.669,1.598 11.000,1.598 C8.331,1.598 6.159,3.773 6.159,6.446 C6.159,9.119 8.331,11.294 11.000,11.294 C13.669,11.294 15.841,9.119 15.841,6.446 ZM11.000,14.284 C11.469,14.284 11.849,14.665 11.849,15.134 C11.849,15.604 11.469,15.984 11.000,15.984 C10.531,15.984 10.151,15.604 10.151,15.134 C10.151,14.665 10.531,14.284 11.000,14.284 ZM11.000,16.907 C11.469,16.907 11.849,17.287 11.849,17.757 C11.849,18.226 11.469,18.607 11.000,18.607 C10.531,18.607 10.151,18.226 10.151,17.757 C10.151,17.287 10.531,16.907 11.000,16.907 Z"/>
</svg>