<svg 
 xmlns="http://www.w3.org/2000/svg"
 xmlns:xlink="http://www.w3.org/1999/xlink"
 width="45px" height="60px">
<defs>
<linearGradient id="PSgrad_0" x1="100%" x2="0%" y1="0%" y2="0%">
  <stop offset="0%" stop-color="rgb(48,178,255)" stop-opacity="1" />
  <stop offset="100%" stop-color="rgb(156,221,255)" stop-opacity="1" />
</linearGradient>

</defs>
<path fill-rule="evenodd"  fill="rgb(97, 197, 255)"
 d="M43.750,60.000 L1.250,60.000 C0.559,60.000 0.000,59.441 0.000,58.750 L0.000,6.250 C0.000,5.559 0.559,5.000 1.250,5.000 L6.250,5.000 C6.941,5.000 7.500,5.559 7.500,6.250 C7.500,6.941 6.941,7.500 6.250,7.500 L2.500,7.500 L2.500,57.500 L42.500,57.500 L42.500,7.500 L38.750,7.500 C38.059,7.500 37.500,6.941 37.500,6.250 C37.500,5.559 38.059,5.000 38.750,5.000 L43.750,5.000 C44.441,5.000 45.000,5.559 45.000,6.250 L45.000,58.750 C45.000,59.441 44.441,60.000 43.750,60.000 ZM26.250,40.000 L36.250,40.000 C36.941,40.000 37.500,40.559 37.500,41.250 C37.500,41.941 36.941,42.500 36.250,42.500 L26.250,42.500 C25.559,42.500 25.000,41.941 25.000,41.250 C25.000,40.559 25.559,40.000 26.250,40.000 ZM36.250,27.500 L26.250,27.500 C25.559,27.500 25.000,26.941 25.000,26.250 C25.000,25.559 25.559,25.000 26.250,25.000 L36.250,25.000 C36.941,25.000 37.500,25.559 37.500,26.250 C37.500,26.941 36.941,27.500 36.250,27.500 ZM33.750,10.000 L11.250,10.000 C10.559,10.000 10.000,9.441 10.000,8.750 L10.000,6.250 C10.000,2.804 12.803,0.000 16.250,0.000 L28.750,0.000 C32.197,0.000 35.000,2.804 35.000,6.250 L35.000,8.750 C35.000,9.441 34.441,10.000 33.750,10.000 ZM32.500,6.250 C32.500,4.182 30.818,2.500 28.750,2.500 L16.250,2.500 C14.182,2.500 12.500,4.182 12.500,6.250 L12.500,7.500 L32.500,7.500 L32.500,6.250 ZM8.134,37.866 L12.250,41.982 L18.866,35.366 C19.354,34.878 20.146,34.878 20.634,35.366 C21.122,35.854 21.122,36.646 20.634,37.134 L13.134,44.634 C12.890,44.878 12.570,45.000 12.250,45.000 C11.930,45.000 11.610,44.878 11.366,44.634 L6.366,39.634 C5.878,39.145 5.878,38.355 6.366,37.866 C6.855,37.378 7.645,37.378 8.134,37.866 ZM6.366,22.866 C6.855,22.378 7.645,22.378 8.134,22.866 L12.250,26.983 L18.866,20.366 C19.354,19.878 20.146,19.878 20.634,20.366 C21.122,20.855 21.122,21.645 20.634,22.134 L13.134,29.634 C12.890,29.878 12.570,30.000 12.250,30.000 C11.930,30.000 11.610,29.878 11.366,29.634 L6.366,24.634 C5.878,24.146 5.878,23.354 6.366,22.866 Z"/>
<path fill="url(#PSgrad_0)"
 d="M43.750,60.000 L1.250,60.000 C0.559,60.000 0.000,59.441 0.000,58.750 L0.000,6.250 C0.000,5.559 0.559,5.000 1.250,5.000 L6.250,5.000 C6.941,5.000 7.500,5.559 7.500,6.250 C7.500,6.941 6.941,7.500 6.250,7.500 L2.500,7.500 L2.500,57.500 L42.500,57.500 L42.500,7.500 L38.750,7.500 C38.059,7.500 37.500,6.941 37.500,6.250 C37.500,5.559 38.059,5.000 38.750,5.000 L43.750,5.000 C44.441,5.000 45.000,5.559 45.000,6.250 L45.000,58.750 C45.000,59.441 44.441,60.000 43.750,60.000 ZM26.250,40.000 L36.250,40.000 C36.941,40.000 37.500,40.559 37.500,41.250 C37.500,41.941 36.941,42.500 36.250,42.500 L26.250,42.500 C25.559,42.500 25.000,41.941 25.000,41.250 C25.000,40.559 25.559,40.000 26.250,40.000 ZM36.250,27.500 L26.250,27.500 C25.559,27.500 25.000,26.941 25.000,26.250 C25.000,25.559 25.559,25.000 26.250,25.000 L36.250,25.000 C36.941,25.000 37.500,25.559 37.500,26.250 C37.500,26.941 36.941,27.500 36.250,27.500 ZM33.750,10.000 L11.250,10.000 C10.559,10.000 10.000,9.441 10.000,8.750 L10.000,6.250 C10.000,2.804 12.803,0.000 16.250,0.000 L28.750,0.000 C32.197,0.000 35.000,2.804 35.000,6.250 L35.000,8.750 C35.000,9.441 34.441,10.000 33.750,10.000 ZM32.500,6.250 C32.500,4.182 30.818,2.500 28.750,2.500 L16.250,2.500 C14.182,2.500 12.500,4.182 12.500,6.250 L12.500,7.500 L32.500,7.500 L32.500,6.250 ZM8.134,37.866 L12.250,41.982 L18.866,35.366 C19.354,34.878 20.146,34.878 20.634,35.366 C21.122,35.854 21.122,36.646 20.634,37.134 L13.134,44.634 C12.890,44.878 12.570,45.000 12.250,45.000 C11.930,45.000 11.610,44.878 11.366,44.634 L6.366,39.634 C5.878,39.145 5.878,38.355 6.366,37.866 C6.855,37.378 7.645,37.378 8.134,37.866 ZM6.366,22.866 C6.855,22.378 7.645,22.378 8.134,22.866 L12.250,26.983 L18.866,20.366 C19.354,19.878 20.146,19.878 20.634,20.366 C21.122,20.855 21.122,21.645 20.634,22.134 L13.134,29.634 C12.890,29.878 12.570,30.000 12.250,30.000 C11.930,30.000 11.610,29.878 11.366,29.634 L6.366,24.634 C5.878,24.146 5.878,23.354 6.366,22.866 Z"/>
</svg>