<svg 
 xmlns="http://www.w3.org/2000/svg"
 xmlns:xlink="http://www.w3.org/1999/xlink"
 width="68px" height="60px">
 <defs>
<linearGradient id="PSgrad_0" x1="100%" x2="0%" y1="0%" y2="0%">
  <stop offset="0%" stop-color="rgb(48,178,255)" stop-opacity="1" />
  <stop offset="100%" stop-color="rgb(156,221,255)" stop-opacity="1" />
</linearGradient>
</defs>
<path fill-rule="evenodd" fill="url(#PSgrad_0)"
 d="M66.709,60.000 L1.284,60.000 C0.573,60.000 -0.005,59.424 -0.005,58.716 C-0.005,58.008 0.573,57.431 1.284,57.431 L66.709,57.431 C67.420,57.431 67.998,58.008 67.998,58.716 C67.998,59.424 67.420,60.000 66.709,60.000 ZM61.103,34.426 L61.103,54.807 C61.103,55.515 60.525,56.091 59.815,56.091 C59.105,56.091 58.527,55.515 58.527,54.807 L58.527,34.426 C58.527,33.718 59.105,33.142 59.815,33.142 C60.525,33.142 61.103,33.718 61.103,34.426 ZM48.804,42.598 C49.515,42.598 50.093,43.174 50.093,43.883 C50.093,44.591 49.515,45.167 48.804,45.167 L17.001,45.167 C16.291,45.167 15.713,44.591 15.713,43.883 C15.713,43.174 16.291,42.598 17.001,42.598 L48.804,42.598 ZM9.466,34.426 L9.466,54.807 C9.466,55.515 8.888,56.091 8.178,56.091 C7.468,56.091 6.890,55.515 6.890,54.807 L6.890,34.426 C6.890,33.718 7.468,33.142 8.178,33.142 C8.888,33.142 9.466,33.718 9.466,34.426 ZM66.139,31.894 L1.855,31.894 C1.144,31.894 0.566,31.317 0.566,30.609 C0.566,29.902 1.144,29.326 1.855,29.326 L66.139,29.326 C66.849,29.326 67.427,29.902 67.427,30.609 C67.427,31.317 66.849,31.894 66.139,31.894 ZM59.857,27.183 C59.194,27.183 58.657,26.648 58.657,25.987 L58.657,18.706 L58.657,16.798 C58.657,16.287 58.501,15.812 58.233,15.418 C57.787,14.761 57.033,14.328 56.178,14.328 L45.723,14.328 C44.869,14.328 44.115,14.761 43.669,15.418 C43.401,15.812 43.245,16.287 43.245,16.798 L43.245,18.706 L43.245,25.987 C43.245,26.648 42.707,27.183 42.044,27.183 C41.381,27.183 40.844,26.648 40.844,25.987 L40.844,18.706 L40.844,16.798 C40.844,16.463 40.878,16.136 40.943,15.819 C41.399,13.605 43.369,11.934 45.723,11.934 L45.723,11.934 L56.178,11.934 L56.179,11.934 C58.533,11.934 60.503,13.605 60.959,15.819 C61.024,16.136 61.058,16.463 61.058,16.798 L61.058,18.706 L61.058,25.987 C61.058,26.648 60.521,27.183 59.857,27.183 ZM50.674,10.293 C47.826,10.293 45.509,7.984 45.509,5.145 C45.509,2.306 47.826,-0.003 50.674,-0.003 C53.522,-0.003 55.838,2.306 55.838,5.145 C55.838,7.984 53.522,10.293 50.674,10.293 ZM50.674,2.390 C49.150,2.390 47.910,3.626 47.910,5.145 C47.910,6.664 49.150,7.899 50.674,7.899 C52.198,7.899 53.437,6.664 53.437,5.145 C53.437,3.626 52.198,2.390 50.674,2.390 ZM30.665,26.644 L23.364,26.644 L23.364,26.606 C22.878,26.491 22.493,26.099 22.400,25.591 L20.836,17.073 L7.712,17.073 L9.429,25.094 C9.500,25.429 9.437,25.772 9.249,26.059 C9.061,26.347 8.774,26.544 8.437,26.615 C7.745,26.759 7.059,26.318 6.912,25.626 L4.864,16.056 C4.717,15.364 5.161,14.682 5.855,14.534 C5.944,14.516 6.033,14.507 6.123,14.507 L21.907,14.505 C22.573,14.505 23.124,15.003 23.189,15.664 L24.734,24.076 L30.665,24.076 C31.375,24.076 31.953,24.652 31.953,25.361 C31.953,26.068 31.375,26.644 30.665,26.644 Z"/>
</svg>