<svg 
 xmlns="http://www.w3.org/2000/svg"
 xmlns:xlink="http://www.w3.org/1999/xlink"
 width="76px" height="60px">
 <defs>
<linearGradient id="PSgrad_0" x1="100%" x2="0%" y1="0%" y2="0%">
  <stop offset="0%" stop-color="rgb(48,178,255)" stop-opacity="1" />
  <stop offset="100%" stop-color="rgb(156,221,255)" stop-opacity="1" />
</linearGradient>
</defs>
<path fill-rule="evenodd" fill="url(#PSgrad_0)"
 d="M73.405,33.099 L72.586,33.402 L75.774,42.369 C76.204,43.577 76.014,44.924 75.267,45.970 C74.519,47.016 73.301,47.641 72.008,47.641 L69.305,47.641 L69.305,57.270 C69.305,57.944 68.753,58.491 68.073,58.491 L58.760,58.491 C58.080,58.491 57.528,57.944 57.528,57.270 C57.528,56.596 58.080,56.050 58.760,56.050 L60.910,56.050 L60.910,48.932 C60.910,48.258 61.461,47.712 62.141,47.712 C62.821,47.712 63.373,48.258 63.373,48.932 L63.373,56.050 L66.842,56.050 L66.842,46.420 C66.842,45.746 67.393,45.200 68.073,45.200 L72.008,45.200 C72.511,45.200 72.966,44.967 73.257,44.560 C73.548,44.153 73.618,43.650 73.451,43.180 L69.861,33.084 C69.638,32.457 69.963,31.768 70.592,31.535 L72.543,30.813 C73.269,30.544 73.677,29.778 73.493,29.032 L70.530,17.012 C70.251,15.881 69.235,15.092 68.060,15.092 L56.946,15.092 C55.771,15.092 54.756,15.881 54.477,17.012 L53.155,22.068 C52.994,22.723 52.325,23.124 51.666,22.964 C51.005,22.804 50.601,22.143 50.762,21.489 L52.084,16.433 C52.633,14.206 54.632,12.651 56.946,12.651 L68.060,12.651 C70.374,12.651 72.373,14.206 72.922,16.433 L75.886,28.453 C76.366,30.400 75.299,32.397 73.405,33.099 ZM62.503,10.499 C59.582,10.499 57.206,8.144 57.206,5.250 C57.206,2.355 59.582,0.001 62.503,0.001 C65.424,0.001 67.800,2.355 67.800,5.250 C67.800,8.144 65.424,10.499 62.503,10.499 ZM62.503,2.441 C60.940,2.441 59.669,3.701 59.669,5.250 C59.669,6.799 60.940,8.059 62.503,8.059 C64.066,8.059 65.337,6.799 65.337,5.250 C65.337,3.701 64.066,2.441 62.503,2.441 ZM52.654,28.594 C52.654,30.932 50.735,32.834 48.375,32.834 C46.016,32.834 44.097,30.932 44.097,28.594 C44.097,26.256 46.016,24.354 48.375,24.354 C50.735,24.354 52.654,26.256 52.654,28.594 ZM48.375,26.795 C47.374,26.795 46.559,27.602 46.559,28.594 C46.559,29.586 47.374,30.394 48.375,30.394 C49.377,30.394 50.191,29.586 50.191,28.594 C50.191,27.602 49.377,26.795 48.375,26.795 ZM43.204,24.146 C42.524,24.146 41.972,23.600 41.972,22.926 L41.972,17.610 C41.972,16.222 40.832,15.092 39.430,15.092 L28.706,15.092 C27.305,15.092 26.164,16.222 26.164,17.610 L26.164,33.440 C26.164,34.276 26.851,34.956 27.694,34.956 C28.375,34.956 28.926,35.502 28.926,36.176 L28.926,56.050 L32.837,56.050 L32.837,41.563 C32.837,40.889 33.388,40.343 34.068,40.343 C34.748,40.343 35.300,40.889 35.300,41.563 L35.300,56.050 L38.328,56.050 C39.008,56.050 39.559,56.596 39.559,57.270 C39.559,57.944 39.008,58.491 38.328,58.491 L27.694,58.491 C27.014,58.491 26.463,57.944 26.463,57.270 L26.463,37.204 C24.862,36.688 23.701,35.196 23.701,33.440 L23.701,17.610 C23.701,14.876 25.947,12.651 28.706,12.651 L39.430,12.651 C42.190,12.651 44.435,14.876 44.435,17.610 L44.435,22.926 C44.435,23.600 43.884,24.146 43.204,24.146 ZM34.068,10.499 C31.147,10.499 28.771,8.144 28.771,5.250 C28.771,2.355 31.147,0.001 34.068,0.001 C36.989,0.001 39.365,2.355 39.365,5.250 C39.365,8.144 36.989,10.499 34.068,10.499 ZM34.068,2.441 C32.505,2.441 31.234,3.701 31.234,5.250 C31.234,6.799 32.505,8.059 34.068,8.059 C35.631,8.059 36.902,6.799 36.902,5.250 C36.902,3.701 35.631,2.441 34.068,2.441 ZM17.937,16.424 C15.016,16.424 12.640,14.070 12.640,11.175 C12.640,8.281 15.016,5.926 17.937,5.926 C20.858,5.926 23.235,8.281 23.235,11.175 C23.235,14.070 20.858,16.424 17.937,16.424 ZM17.937,8.366 C16.374,8.366 15.103,9.626 15.103,11.175 C15.103,12.724 16.374,13.984 17.937,13.984 C19.500,13.984 20.772,12.724 20.772,11.175 C20.772,9.626 19.500,8.366 17.937,8.366 ZM21.067,18.752 C21.747,18.752 22.299,19.298 22.299,19.972 C22.299,20.646 21.747,21.192 21.067,21.192 L14.971,21.192 C13.930,21.192 13.083,22.032 13.083,23.064 L10.620,36.152 C10.620,36.727 11.092,37.195 11.672,37.195 C12.352,37.195 12.903,37.741 12.903,38.415 L12.903,56.161 L17.385,56.161 L17.385,45.781 C17.385,45.107 17.937,44.561 18.617,44.561 C19.297,44.561 19.848,45.107 19.848,45.781 L19.848,56.165 L23.808,56.165 C24.488,56.165 25.039,56.711 25.039,57.385 C25.039,58.059 24.488,58.605 23.808,58.605 L12.212,58.605 C12.200,58.605 12.189,58.602 12.178,58.602 L11.672,58.602 C10.992,58.602 10.440,58.055 10.440,57.382 L10.440,39.415 C9.108,38.919 8.157,37.643 8.157,36.152 L10.620,23.064 C10.620,20.686 12.572,18.752 14.971,18.752 L21.067,18.752 ZM7.799,43.453 C7.119,43.453 6.568,42.907 6.568,42.233 C6.568,41.111 5.647,40.199 4.515,40.199 C3.383,40.199 2.463,41.111 2.463,42.233 L2.463,57.487 C2.463,58.160 1.911,58.707 1.231,58.707 C0.551,58.707 -0.000,58.160 -0.000,57.487 L-0.000,42.233 C-0.000,39.765 2.026,37.758 4.515,37.758 C7.005,37.758 9.031,39.765 9.031,42.233 C9.031,42.907 8.479,43.453 7.799,43.453 ZM42.622,45.947 L42.622,41.627 L37.501,39.416 C37.440,39.390 37.381,39.359 37.325,39.323 C36.693,38.918 36.279,38.262 36.190,37.521 C36.101,36.780 36.347,36.045 36.866,35.505 C37.273,35.079 37.823,34.809 38.413,34.744 L48.011,33.904 C48.087,33.897 48.164,33.898 48.240,33.905 L58.809,34.940 C59.324,35.002 59.776,35.202 60.144,35.523 C60.725,36.028 61.030,36.786 60.959,37.549 C60.888,38.313 60.448,39.003 59.783,39.395 C59.728,39.427 59.670,39.456 59.610,39.480 L54.102,41.654 L54.102,45.960 L55.347,56.468 C55.453,57.363 55.167,58.263 54.563,58.937 C53.958,59.611 53.089,59.997 52.179,59.997 C50.770,59.997 49.510,59.060 49.117,57.719 L48.241,54.732 L47.566,57.564 C47.224,58.997 45.948,59.997 44.462,59.997 L44.298,59.997 C43.375,59.997 42.498,59.601 41.892,58.910 C41.286,58.220 41.012,57.304 41.140,56.398 L42.622,45.947 ZM43.750,57.309 C43.831,57.402 44.011,57.557 44.298,57.557 L44.462,57.557 C44.800,57.557 45.091,57.329 45.169,57.002 L46.921,49.661 C47.049,49.121 47.528,48.736 48.088,48.722 C48.098,48.721 48.109,48.721 48.119,48.721 C48.665,48.721 49.148,49.079 49.301,49.601 L51.482,57.038 C51.571,57.343 51.858,57.557 52.179,57.557 C52.463,57.557 52.641,57.405 52.722,57.315 C52.803,57.225 52.934,57.032 52.901,56.753 L51.647,46.174 C51.642,46.127 51.639,46.080 51.639,46.032 L51.639,40.827 C51.639,40.328 51.946,39.879 52.415,39.694 L58.356,37.348 L48.113,36.345 L38.658,37.172 L38.630,37.241 L44.345,39.708 C44.795,39.902 45.085,40.342 45.085,40.827 L45.085,46.032 C45.085,46.089 45.081,46.145 45.073,46.202 L43.579,56.737 C43.539,57.019 43.669,57.217 43.750,57.309 Z"/>
</svg>