<svg 
 xmlns="http://www.w3.org/2000/svg"
 xmlns:xlink="http://www.w3.org/1999/xlink"
 width="40px" height="34px">
<path fill-rule="evenodd" fill="rgb(5, 145, 225)"
 d="M38.962,0.501 C38.304,0.001 37.485,-0.134 36.709,0.139 L33.926,1.113 L5.740,8.076 L2.500,8.076 C1.121,8.076 0.000,9.253 0.000,10.701 L0.000,21.199 C0.000,22.646 1.121,23.823 2.500,23.823 L5.740,23.823 L10.032,24.884 C10.038,24.914 10.033,24.944 10.042,24.975 L11.431,29.349 C11.694,30.173 12.324,30.807 13.115,31.041 L22.609,33.889 C22.832,33.958 23.058,33.990 23.283,33.990 C24.217,33.990 25.109,33.420 25.587,32.382 L26.498,28.951 L33.926,30.786 L36.709,31.760 C36.973,31.853 37.241,31.897 37.506,31.897 C38.022,31.897 38.527,31.728 38.962,31.398 C39.621,30.899 40.000,30.124 40.000,29.269 L40.000,2.630 C40.000,1.776 39.621,1.000 38.962,0.501 ZM1.667,21.199 L1.667,10.701 C1.667,10.219 2.041,9.826 2.500,9.826 L5.000,9.826 L5.000,22.074 L2.500,22.074 C2.041,22.074 1.667,21.681 1.667,21.199 ZM6.667,9.645 L33.333,3.056 L33.333,28.844 L6.667,22.255 L6.667,9.645 ZM24.040,31.757 C23.861,32.133 23.444,32.319 23.066,32.208 L13.571,29.358 C13.309,29.281 13.099,29.069 13.013,28.796 L11.919,25.350 L24.878,28.551 L24.040,31.757 ZM38.333,29.269 C38.333,29.555 38.206,29.813 37.987,29.980 C37.768,30.144 37.495,30.190 37.236,30.100 L35.000,29.317 L35.000,2.583 L37.236,1.800 C37.495,1.706 37.768,1.754 37.987,1.919 C38.206,2.087 38.333,2.345 38.333,2.630 L38.333,29.269 Z"/>
</svg>