<svg 
 xmlns="http://www.w3.org/2000/svg"
 xmlns:xlink="http://www.w3.org/1999/xlink"
 width="60px" height="60px">
<defs>
<linearGradient id="PSgrad_0" x1="100%" x2="0%" y1="0%" y2="0%">
  <stop offset="0%" stop-color="rgb(48,178,255)" stop-opacity="1" />
  <stop offset="100%" stop-color="rgb(156,221,255)" stop-opacity="1" />
</linearGradient>

</defs>
<path fill-rule="evenodd"  fill="rgb(97, 197, 255)"
 d="M53.750,20.000 L50.000,20.000 L50.000,18.750 C50.000,8.411 41.589,0.000 31.250,0.000 L28.750,0.000 C18.411,0.000 10.000,8.411 10.000,18.750 L10.000,20.000 L6.250,20.000 C2.804,20.000 0.000,22.804 0.000,26.250 L0.000,33.750 C0.000,37.196 2.804,40.000 6.250,40.000 L11.250,40.000 C11.941,40.000 12.500,39.441 12.500,38.750 L12.500,21.250 L12.500,18.750 C12.500,9.790 19.790,2.500 28.750,2.500 L31.250,2.500 C40.210,2.500 47.500,9.790 47.500,18.750 L47.500,21.250 L47.500,38.750 C47.500,39.441 48.059,40.000 48.750,40.000 L50.000,40.000 L50.000,43.750 C50.000,48.447 45.720,55.000 38.750,55.000 L34.770,55.000 C34.252,53.548 32.878,52.500 31.250,52.500 L28.750,52.500 C26.682,52.500 25.000,54.182 25.000,56.250 C25.000,58.318 26.682,60.000 28.750,60.000 L31.250,60.000 C32.878,60.000 34.252,58.952 34.770,57.500 L38.750,57.500 C46.620,57.500 52.500,50.240 52.500,43.750 L52.500,40.000 L53.750,40.000 C57.196,40.000 60.000,37.196 60.000,33.750 L60.000,26.250 C60.000,22.804 57.196,20.000 53.750,20.000 ZM10.000,37.500 L6.250,37.500 C4.182,37.500 2.500,35.818 2.500,33.750 L2.500,26.250 C2.500,24.182 4.182,22.500 6.250,22.500 L10.000,22.500 L10.000,37.500 ZM31.250,57.500 L28.750,57.500 C28.060,57.500 27.500,56.940 27.500,56.250 C27.500,55.560 28.060,55.000 28.750,55.000 L31.250,55.000 C31.940,55.000 32.500,55.560 32.500,56.250 C32.500,56.940 31.940,57.500 31.250,57.500 ZM57.500,33.750 C57.500,35.818 55.818,37.500 53.750,37.500 L50.000,37.500 L50.000,22.500 L53.750,22.500 C55.818,22.500 57.500,24.182 57.500,26.250 L57.500,33.750 Z"/>
<path fill="url(#PSgrad_0)"
 d="M53.750,20.000 L50.000,20.000 L50.000,18.750 C50.000,8.411 41.589,0.000 31.250,0.000 L28.750,0.000 C18.411,0.000 10.000,8.411 10.000,18.750 L10.000,20.000 L6.250,20.000 C2.804,20.000 0.000,22.804 0.000,26.250 L0.000,33.750 C0.000,37.196 2.804,40.000 6.250,40.000 L11.250,40.000 C11.941,40.000 12.500,39.441 12.500,38.750 L12.500,21.250 L12.500,18.750 C12.500,9.790 19.790,2.500 28.750,2.500 L31.250,2.500 C40.210,2.500 47.500,9.790 47.500,18.750 L47.500,21.250 L47.500,38.750 C47.500,39.441 48.059,40.000 48.750,40.000 L50.000,40.000 L50.000,43.750 C50.000,48.447 45.720,55.000 38.750,55.000 L34.770,55.000 C34.252,53.548 32.878,52.500 31.250,52.500 L28.750,52.500 C26.682,52.500 25.000,54.182 25.000,56.250 C25.000,58.318 26.682,60.000 28.750,60.000 L31.250,60.000 C32.878,60.000 34.252,58.952 34.770,57.500 L38.750,57.500 C46.620,57.500 52.500,50.240 52.500,43.750 L52.500,40.000 L53.750,40.000 C57.196,40.000 60.000,37.196 60.000,33.750 L60.000,26.250 C60.000,22.804 57.196,20.000 53.750,20.000 ZM10.000,37.500 L6.250,37.500 C4.182,37.500 2.500,35.818 2.500,33.750 L2.500,26.250 C2.500,24.182 4.182,22.500 6.250,22.500 L10.000,22.500 L10.000,37.500 ZM31.250,57.500 L28.750,57.500 C28.060,57.500 27.500,56.940 27.500,56.250 C27.500,55.560 28.060,55.000 28.750,55.000 L31.250,55.000 C31.940,55.000 32.500,55.560 32.500,56.250 C32.500,56.940 31.940,57.500 31.250,57.500 ZM57.500,33.750 C57.500,35.818 55.818,37.500 53.750,37.500 L50.000,37.500 L50.000,22.500 L53.750,22.500 C55.818,22.500 57.500,24.182 57.500,26.250 L57.500,33.750 Z"/>
</svg>