<svg 
 xmlns="http://www.w3.org/2000/svg"
 xmlns:xlink="http://www.w3.org/1999/xlink"
 width="46px" height="40px">
<path fill-rule="evenodd" fill="rgb(5, 145, 225)"
 d="M45.127,40.000 L0.868,40.000 C0.388,40.000 -0.003,39.616 -0.003,39.144 C-0.003,38.672 0.388,38.288 0.868,38.288 L45.127,38.288 C45.608,38.288 45.999,38.672 45.999,39.144 C45.999,39.616 45.608,40.000 45.127,40.000 ZM41.335,22.951 L41.335,36.538 C41.335,37.010 40.944,37.394 40.463,37.394 C39.983,37.394 39.592,37.010 39.592,36.538 L39.592,22.951 C39.592,22.479 39.983,22.095 40.463,22.095 C40.944,22.095 41.335,22.479 41.335,22.951 ZM33.015,28.399 C33.495,28.399 33.886,28.783 33.886,29.255 C33.886,29.727 33.495,30.111 33.015,30.111 L11.501,30.111 C11.020,30.111 10.629,29.727 10.629,29.255 C10.629,28.783 11.020,28.399 11.501,28.399 L33.015,28.399 ZM6.404,22.951 L6.404,36.538 C6.404,37.010 6.013,37.394 5.532,37.394 C5.052,37.394 4.661,37.010 4.661,36.538 L4.661,22.951 C4.661,22.479 5.052,22.095 5.532,22.095 C6.013,22.095 6.404,22.479 6.404,22.951 ZM44.741,21.262 L1.255,21.262 C0.774,21.262 0.383,20.878 0.383,20.406 C0.383,19.934 0.774,19.550 1.255,19.550 L44.741,19.550 C45.221,19.550 45.612,19.934 45.612,20.406 C45.612,20.878 45.221,21.262 44.741,21.262 ZM40.492,18.122 C40.043,18.122 39.680,17.765 39.680,17.324 L39.680,12.471 L39.680,11.199 C39.680,10.858 39.574,10.542 39.393,10.279 C39.091,9.840 38.581,9.552 38.003,9.552 L30.931,9.552 C30.353,9.552 29.842,9.840 29.541,10.279 C29.360,10.542 29.254,10.858 29.254,11.199 L29.254,12.471 L29.254,17.324 C29.254,17.765 28.890,18.122 28.442,18.122 C27.993,18.122 27.630,17.765 27.630,17.324 L27.630,12.471 L27.630,11.199 C27.630,10.975 27.653,10.757 27.697,10.546 C28.005,9.070 29.338,7.956 30.930,7.956 L30.931,7.956 L38.003,7.956 L38.003,7.956 C39.596,7.956 40.928,9.070 41.237,10.546 C41.281,10.757 41.304,10.975 41.304,11.199 L41.304,12.471 L41.304,17.324 C41.304,17.765 40.940,18.122 40.492,18.122 ZM34.279,6.862 C32.353,6.862 30.786,5.322 30.786,3.430 C30.786,1.537 32.353,-0.002 34.279,-0.002 C36.206,-0.002 37.773,1.537 37.773,3.430 C37.773,5.322 36.206,6.862 34.279,6.862 ZM34.279,1.593 C33.249,1.593 32.410,2.417 32.410,3.430 C32.410,4.443 33.249,5.266 34.279,5.266 C35.310,5.266 36.149,4.443 36.149,3.430 C36.149,2.417 35.310,1.593 34.279,1.593 ZM20.744,17.763 L15.805,17.763 L15.805,17.737 C15.477,17.660 15.216,17.399 15.153,17.061 L14.095,11.382 L5.217,11.382 L6.378,16.729 C6.427,16.953 6.384,17.181 6.257,17.373 C6.130,17.564 5.935,17.696 5.707,17.743 C5.239,17.839 4.775,17.545 4.676,17.084 L3.290,10.704 C3.191,10.243 3.491,9.788 3.961,9.690 C4.021,9.677 4.081,9.671 4.142,9.671 L14.819,9.670 C15.270,9.670 15.643,10.002 15.687,10.442 L16.732,16.051 L20.744,16.051 C21.224,16.051 21.615,16.435 21.615,16.907 C21.615,17.379 21.224,17.763 20.744,17.763 Z"/>
</svg>