<svg 
 xmlns="http://www.w3.org/2000/svg"
 xmlns:xlink="http://www.w3.org/1999/xlink"
 width="36px" height="36px">
<path fill-rule="evenodd"  fill="rgb(5, 145, 225)"
 d="M18.003,35.990 C8.082,35.990 0.010,27.918 0.010,17.996 C0.010,8.075 8.082,0.003 18.003,0.003 C27.924,0.003 35.996,8.075 35.996,17.996 C35.996,27.918 27.924,35.990 18.003,35.990 ZM18.003,1.304 C8.799,1.304 1.310,8.792 1.310,17.996 C1.310,27.200 8.799,34.689 18.003,34.689 C27.207,34.689 34.695,27.200 34.695,17.996 C34.695,8.792 27.207,1.304 18.003,1.304 ZM32.435,19.648 C31.699,26.317 26.324,31.692 19.654,32.430 C19.111,32.490 18.570,32.519 18.032,32.519 C14.121,32.519 10.396,30.954 7.619,28.096 C7.493,27.968 7.427,27.792 7.436,27.612 C7.444,27.432 7.527,27.263 7.665,27.147 L18.319,18.129 L18.319,4.175 C18.319,3.994 18.393,3.822 18.525,3.700 C18.658,3.576 18.841,3.522 19.014,3.526 C22.937,3.797 26.637,5.688 29.163,8.713 C31.716,11.769 32.877,15.652 32.435,19.648 Z"/>
</svg>