<svg 
 xmlns="http://www.w3.org/2000/svg"
 xmlns:xlink="http://www.w3.org/1999/xlink"
 width="20px" height="20px">
<path fill-rule="evenodd"  fill="rgb(255, 255, 255)"
 d="M19.788,18.900 L14.024,13.126 C15.204,11.736 15.920,9.940 15.920,7.976 C15.920,3.583 12.351,0.009 7.965,0.009 C3.579,0.009 0.011,3.583 0.011,7.976 C0.011,12.370 3.579,15.944 7.965,15.944 C9.925,15.944 11.718,15.227 13.106,14.046 L18.870,19.819 C18.996,19.946 19.163,20.010 19.329,20.010 C19.495,20.010 19.661,19.946 19.788,19.819 C20.041,19.565 20.041,19.154 19.788,18.900 ZM12.673,12.685 C12.671,12.687 12.669,12.687 12.668,12.688 C12.667,12.690 12.666,12.691 12.665,12.693 C11.460,13.897 9.798,14.644 7.965,14.644 C4.295,14.644 1.309,11.653 1.309,7.976 C1.309,4.300 4.295,1.309 7.965,1.309 C11.635,1.309 14.621,4.300 14.621,7.976 C14.621,9.813 13.876,11.478 12.673,12.685 Z"/>
</svg>