<svg 
 xmlns="http://www.w3.org/2000/svg"
 xmlns:xlink="http://www.w3.org/1999/xlink"
 width="40px" height="40px">
<path fill-rule="evenodd" fill="rgb(5, 145, 225)"
 d="M34.167,40.000 L5.833,40.000 C5.373,40.000 5.000,39.627 5.000,39.167 L5.000,4.167 C5.000,3.706 5.373,3.333 5.833,3.333 L9.167,3.333 C9.627,3.333 10.000,3.706 10.000,4.167 C10.000,4.627 9.627,5.000 9.167,5.000 L6.667,5.000 L6.667,38.333 L33.333,38.333 L33.333,5.000 L30.833,5.000 C30.373,5.000 30.000,4.627 30.000,4.167 C30.000,3.706 30.373,3.333 30.833,3.333 L34.167,3.333 C34.627,3.333 35.000,3.706 35.000,4.167 L35.000,39.167 C35.000,39.627 34.627,40.000 34.167,40.000 ZM22.500,26.667 L29.167,26.667 C29.627,26.667 30.000,27.039 30.000,27.500 C30.000,27.961 29.627,28.333 29.167,28.333 L22.500,28.333 C22.039,28.333 21.667,27.961 21.667,27.500 C21.667,27.039 22.039,26.667 22.500,26.667 ZM29.167,18.333 L22.500,18.333 C22.039,18.333 21.667,17.961 21.667,17.500 C21.667,17.039 22.039,16.667 22.500,16.667 L29.167,16.667 C29.627,16.667 30.000,17.039 30.000,17.500 C30.000,17.961 29.627,18.333 29.167,18.333 ZM27.500,6.667 L12.500,6.667 C12.039,6.667 11.667,6.294 11.667,5.833 L11.667,4.167 C11.667,1.869 13.535,0.000 15.833,0.000 L24.167,0.000 C26.465,0.000 28.333,1.869 28.333,4.167 L28.333,5.833 C28.333,6.294 27.961,6.667 27.500,6.667 ZM26.667,4.167 C26.667,2.788 25.545,1.667 24.167,1.667 L15.833,1.667 C14.455,1.667 13.333,2.788 13.333,4.167 L13.333,5.000 L26.667,5.000 L26.667,4.167 ZM10.756,25.244 L13.500,27.988 L17.911,23.577 C18.236,23.252 18.764,23.252 19.089,23.577 C19.415,23.903 19.415,24.430 19.089,24.756 L14.089,29.756 C13.927,29.919 13.713,30.000 13.500,30.000 C13.287,30.000 13.074,29.919 12.911,29.756 L9.578,26.422 C9.252,26.097 9.252,25.570 9.578,25.244 C9.903,24.919 10.430,24.919 10.756,25.244 ZM17.911,13.578 C18.236,13.252 18.764,13.252 19.089,13.578 C19.415,13.903 19.415,14.430 19.089,14.756 L14.089,19.756 C13.927,19.919 13.713,20.000 13.500,20.000 C13.287,20.000 13.074,19.919 12.911,19.756 L9.578,16.423 C9.252,16.097 9.252,15.570 9.578,15.244 C9.903,14.919 10.430,14.919 10.756,15.244 L13.500,17.988 L17.911,13.578 Z"/>
<path fill-rule="evenodd"  fill="none"
 d="M0.000,0.000 L40.000,0.000 L40.000,40.000 L0.000,40.000 L0.000,0.000 Z"/>
</svg>