<svg 
 xmlns="http://www.w3.org/2000/svg"
 xmlns:xlink="http://www.w3.org/1999/xlink"
 width="51px" height="40px">
<path fill-rule="evenodd" fill="rgb(5, 145, 225)"
 d="M48.293,22.066 L47.754,22.268 L49.851,28.246 C50.134,29.052 50.009,29.949 49.518,30.647 C49.026,31.344 48.225,31.760 47.373,31.760 L45.595,31.760 L45.595,38.180 C45.595,38.629 45.233,38.994 44.785,38.994 L38.658,38.994 C38.210,38.994 37.848,38.629 37.848,38.180 C37.848,37.731 38.210,37.367 38.658,37.367 L40.072,37.367 L40.072,32.621 C40.072,32.172 40.435,31.808 40.882,31.808 C41.330,31.808 41.693,32.172 41.693,32.621 L41.693,37.367 L43.975,37.367 L43.975,30.947 C43.975,30.498 44.338,30.133 44.785,30.133 L47.373,30.133 C47.705,30.133 48.004,29.978 48.195,29.707 C48.387,29.435 48.433,29.100 48.323,28.786 L45.961,22.056 C45.815,21.638 46.028,21.179 46.442,21.024 L47.726,20.542 C48.203,20.363 48.472,19.852 48.351,19.355 L46.401,11.341 C46.218,10.588 45.550,10.061 44.777,10.061 L37.464,10.061 C36.691,10.061 36.023,10.588 35.840,11.341 L34.970,14.712 C34.864,15.148 34.424,15.416 33.991,15.309 C33.556,15.202 33.290,14.762 33.396,14.326 L34.266,10.955 C34.627,9.471 35.942,8.434 37.464,8.434 L44.777,8.434 C46.298,8.434 47.614,9.471 47.975,10.955 L49.925,18.969 C50.241,20.267 49.539,21.598 48.293,22.066 ZM41.120,6.999 C39.199,6.999 37.635,5.430 37.635,3.500 C37.635,1.570 39.199,0.000 41.120,0.000 C43.042,0.000 44.605,1.570 44.605,3.500 C44.605,5.430 43.042,6.999 41.120,6.999 ZM41.120,1.627 C40.092,1.627 39.256,2.467 39.256,3.500 C39.256,4.532 40.092,5.372 41.120,5.372 C42.149,5.372 42.985,4.532 42.985,3.500 C42.985,2.467 42.149,1.627 41.120,1.627 ZM34.641,19.063 C34.641,20.621 33.378,21.890 31.826,21.890 C30.274,21.890 29.011,20.621 29.011,19.063 C29.011,17.504 30.274,16.236 31.826,16.236 C33.378,16.236 34.641,17.504 34.641,19.063 ZM31.826,17.863 C31.167,17.863 30.631,18.401 30.631,19.063 C30.631,19.724 31.167,20.263 31.826,20.263 C32.485,20.263 33.021,19.724 33.021,19.063 C33.021,18.401 32.485,17.863 31.826,17.863 ZM28.423,16.098 C27.976,16.098 27.613,15.733 27.613,15.284 L27.613,11.740 C27.613,10.814 26.863,10.061 25.941,10.061 L18.886,10.061 C17.964,10.061 17.213,10.814 17.213,11.740 L17.213,22.293 C17.213,22.851 17.665,23.304 18.220,23.304 C18.667,23.304 19.030,23.668 19.030,24.117 L19.030,37.367 L21.603,37.367 L21.603,27.709 C21.603,27.259 21.966,26.895 22.413,26.895 C22.861,26.895 23.223,27.259 23.223,27.709 L23.223,37.367 L25.216,37.367 C25.663,37.367 26.026,37.731 26.026,38.180 C26.026,38.629 25.663,38.994 25.216,38.994 L18.220,38.994 C17.773,38.994 17.410,38.629 17.410,38.180 L17.410,24.803 C16.356,24.459 15.593,23.464 15.593,22.293 L15.593,11.740 C15.593,9.917 17.070,8.434 18.886,8.434 L25.941,8.434 C27.756,8.434 29.234,9.917 29.234,11.740 L29.234,15.284 C29.234,15.733 28.871,16.098 28.423,16.098 ZM22.413,6.999 C20.492,6.999 18.928,5.430 18.928,3.500 C18.928,1.570 20.492,0.000 22.413,0.000 C24.335,0.000 25.898,1.570 25.898,3.500 C25.898,5.430 24.335,6.999 22.413,6.999 ZM22.413,1.627 C21.385,1.627 20.549,2.467 20.549,3.500 C20.549,4.532 21.385,5.372 22.413,5.372 C23.441,5.372 24.278,4.532 24.278,3.500 C24.278,2.467 23.441,1.627 22.413,1.627 ZM11.801,10.950 C9.879,10.950 8.316,9.380 8.316,7.450 C8.316,5.520 9.879,3.951 11.801,3.951 C13.723,3.951 15.286,5.520 15.286,7.450 C15.286,9.380 13.723,10.950 11.801,10.950 ZM11.801,5.578 C10.773,5.578 9.936,6.418 9.936,7.450 C9.936,8.483 10.773,9.323 11.801,9.323 C12.829,9.323 13.666,8.483 13.666,7.450 C13.666,6.418 12.829,5.578 11.801,5.578 ZM13.860,12.501 C14.308,12.501 14.670,12.865 14.670,13.315 C14.670,13.764 14.308,14.128 13.860,14.128 L9.849,14.128 C9.164,14.128 8.607,14.688 8.607,15.376 L6.987,24.101 C6.987,24.485 7.297,24.796 7.679,24.796 C8.126,24.796 8.489,25.161 8.489,25.610 L8.489,37.441 L11.438,37.441 L11.438,30.521 C11.438,30.071 11.800,29.707 12.248,29.707 C12.695,29.707 13.058,30.071 13.058,30.521 L13.058,37.443 L15.663,37.443 C16.111,37.443 16.473,37.807 16.473,38.257 C16.473,38.706 16.111,39.070 15.663,39.070 L8.034,39.070 C8.026,39.070 8.019,39.068 8.012,39.068 L7.679,39.068 C7.231,39.068 6.869,38.704 6.869,38.254 L6.869,26.276 C5.992,25.946 5.366,25.096 5.366,24.101 L6.987,15.376 C6.987,13.791 8.271,12.501 9.849,12.501 L13.860,12.501 ZM5.131,28.969 C4.684,28.969 4.321,28.604 4.321,28.155 C4.321,27.408 3.715,26.799 2.970,26.799 C2.226,26.799 1.620,27.408 1.620,28.155 L1.620,38.324 C1.620,38.774 1.257,39.138 0.810,39.138 C0.363,39.138 -0.000,38.774 -0.000,38.324 L-0.000,28.155 C-0.000,26.510 1.333,25.172 2.970,25.172 C4.609,25.172 5.941,26.510 5.941,28.155 C5.941,28.604 5.578,28.969 5.131,28.969 ZM28.041,30.631 L28.041,27.751 L24.672,26.278 C24.632,26.260 24.593,26.239 24.556,26.215 C24.140,25.946 23.868,25.508 23.809,25.014 C23.750,24.520 23.913,24.030 24.254,23.670 C24.522,23.386 24.884,23.206 25.271,23.162 L31.586,22.602 C31.636,22.598 31.687,22.598 31.737,22.603 L38.690,23.293 C39.029,23.334 39.326,23.468 39.569,23.682 C39.951,24.019 40.151,24.524 40.105,25.033 C40.058,25.542 39.769,26.002 39.331,26.263 C39.295,26.285 39.256,26.304 39.217,26.320 L35.593,27.770 L35.593,30.640 L36.412,37.645 C36.482,38.242 36.294,38.842 35.896,39.291 C35.499,39.740 34.927,39.998 34.329,39.998 C33.401,39.998 32.573,39.373 32.314,38.479 L31.738,36.488 L31.293,38.376 C31.068,39.331 30.229,39.998 29.251,39.998 L29.144,39.998 C28.536,39.998 27.959,39.734 27.560,39.274 C27.162,38.813 26.982,38.203 27.066,37.598 L28.041,30.631 ZM28.783,38.206 C28.836,38.268 28.954,38.371 29.144,38.371 L29.251,38.371 C29.474,38.371 29.665,38.219 29.716,38.002 L30.869,33.107 C30.953,32.748 31.269,32.490 31.637,32.481 C31.644,32.481 31.650,32.481 31.657,32.481 C32.017,32.481 32.334,32.719 32.435,33.067 L33.870,38.025 C33.929,38.229 34.117,38.371 34.329,38.371 C34.515,38.371 34.632,38.270 34.686,38.210 C34.739,38.150 34.825,38.021 34.803,37.835 L33.978,30.783 C33.975,30.751 33.973,30.720 33.973,30.688 L33.973,27.218 C33.973,26.885 34.175,26.586 34.483,26.462 L38.392,24.898 L31.653,24.230 L25.433,24.781 L25.414,24.828 L29.175,26.472 C29.470,26.602 29.661,26.894 29.661,27.218 L29.661,30.688 C29.661,30.726 29.659,30.764 29.653,30.801 L28.670,37.825 C28.644,38.013 28.730,38.144 28.783,38.206 Z"/>
</svg>