<svg 
 xmlns="http://www.w3.org/2000/svg"
 xmlns:xlink="http://www.w3.org/1999/xlink"
 width="85px" height="82px">
<path fill-rule="evenodd"  stroke="rgb(51, 51, 51)" stroke-width="2px" stroke-linecap="butt" stroke-linejoin="miter" fill="rgb(181, 112, 211)"
 d="M8.311,17.572 L56.835,1.875 C62.090,0.175 67.728,3.057 69.428,8.311 L79.125,37.835 C80.825,43.090 77.943,48.728 72.689,50.428 L24.165,66.125 C18.910,67.825 13.272,64.943 11.572,59.689 L1.875,30.165 C0.175,24.910 3.057,19.272 8.311,17.572 Z"/>
<path fill-rule="evenodd"  stroke="rgb(51, 51, 51)" stroke-width="2px" stroke-linecap="butt" stroke-linejoin="miter" fill="rgb(255, 255, 255)"
 d="M22.000,9.000 L73.000,9.000 C78.523,9.000 83.000,13.477 83.000,19.000 L83.000,70.000 C83.000,75.523 78.523,80.000 73.000,80.000 L22.000,80.000 C16.477,80.000 12.000,75.523 12.000,70.000 L12.000,19.000 C12.000,13.477 16.477,9.000 22.000,9.000 Z"/>
</svg>